<svg width="32" height="20" viewBox="0 0 32 20" xmlns="http://www.w3.org/2000/svg">
<path d="M31.8304 17.3598C31.7916 17.2763 31.7555 17.207 31.7219 17.1515C31.1667 16.1516 30.1058 14.9243 28.5397 13.4691L28.5066 13.4358L28.49 13.4195L28.4733 13.4027H28.4564C27.7457 12.7252 27.2956 12.2696 27.1071 12.0363C26.7622 11.592 26.6849 11.1423 26.8734 10.6866C27.0066 10.3423 27.5068 9.61513 28.3729 8.50421C28.8285 7.91546 29.1893 7.44359 29.4558 7.08809C31.3775 4.53326 32.2107 2.90069 31.9551 2.18974L31.8558 2.0236C31.7891 1.92358 31.617 1.83207 31.3396 1.74862C31.0616 1.66535 30.7062 1.65158 30.273 1.70708L25.4747 1.74022C25.397 1.71268 25.286 1.71525 25.1414 1.74862C24.9969 1.782 24.9247 1.79875 24.9247 1.79875L24.8412 1.84048L24.7749 1.8906C24.7193 1.92375 24.6582 1.98205 24.5915 2.06538C24.5252 2.14842 24.4697 2.24588 24.4253 2.35693C23.9029 3.70093 23.309 4.9505 22.6424 6.1056C22.2314 6.79438 21.8539 7.3913 21.5092 7.89673C21.165 8.40197 20.8762 8.77422 20.6431 9.01284C20.4097 9.25169 20.199 9.44304 20.0098 9.58759C19.8209 9.7322 19.6767 9.7933 19.5769 9.77095C19.4768 9.7486 19.3826 9.72642 19.2933 9.70424C19.1379 9.60422 19.0129 9.46819 18.9187 9.29604C18.824 9.12389 18.7603 8.90722 18.727 8.64619C18.6938 8.38499 18.6742 8.16032 18.6686 7.97142C18.6634 7.78276 18.6658 7.51589 18.6771 7.17159C18.6886 6.82712 18.6938 6.59404 18.6938 6.47185C18.6938 6.0497 18.7021 5.59154 18.7186 5.09727C18.7354 4.60299 18.749 4.21137 18.7604 3.92285C18.7717 3.63405 18.7769 3.3285 18.7769 3.00637C18.7769 2.68425 18.7573 2.43162 18.7186 2.24827C18.6803 2.06515 18.6215 1.8874 18.5441 1.71507C18.4662 1.54292 18.3522 1.40975 18.2025 1.31521C18.0526 1.22079 17.8662 1.14587 17.6444 1.09019C17.0557 0.956967 16.306 0.884897 15.395 0.873693C13.3291 0.851518 12.0017 0.984919 11.413 1.27372C11.1797 1.39575 10.9687 1.56247 10.7799 1.77337C10.58 2.01782 10.5521 2.15122 10.6964 2.17317C11.363 2.27301 11.8348 2.51186 12.1126 2.88949L12.2126 3.08959C12.2905 3.23396 12.3682 3.48956 12.446 3.85604C12.5237 4.22251 12.5738 4.62791 12.5959 5.072C12.6513 5.88298 12.6513 6.57718 12.5959 7.15467C12.5402 7.7324 12.4877 8.18214 12.4376 8.50427C12.3875 8.8264 12.3125 9.08742 12.2126 9.28729C12.1126 9.48722 12.046 9.60942 12.0126 9.65377C11.9793 9.69812 11.9515 9.72607 11.9294 9.73704C11.7851 9.79236 11.6349 9.82055 11.4795 9.82055C11.3239 9.82055 11.1351 9.7427 10.913 9.58712C10.691 9.43155 10.4606 9.21785 10.2217 8.94567C9.98285 8.67344 9.71348 8.29302 9.41347 7.80435C9.1137 7.31567 8.80266 6.73812 8.48053 6.0717L8.21402 5.58839C8.04741 5.27747 7.81983 4.82475 7.53102 4.23062C7.24204 3.63627 6.98662 3.06134 6.76457 2.50597C6.67581 2.27272 6.54247 2.09514 6.36478 1.97295L6.28139 1.92282C6.22595 1.87847 6.13695 1.83137 6.01487 1.78119C5.89262 1.73106 5.76505 1.69511 5.63165 1.67299L1.06651 1.70614C0.600017 1.70614 0.283494 1.81182 0.116829 2.0229L0.0501278 2.12275C0.0168065 2.17836 0 2.26718 0 2.38943C0 2.51163 0.0333213 2.66161 0.100022 2.83918C0.766448 4.40546 1.49117 5.916 2.27419 7.37105C3.05721 8.8261 3.73765 9.99818 4.31508 10.8862C4.89263 11.775 5.48132 12.6137 6.08117 13.4021C6.68101 14.1908 7.07806 14.6962 7.27233 14.9182C7.46683 15.1407 7.61961 15.307 7.73066 15.4181L8.14726 15.8179C8.41383 16.0845 8.80529 16.4038 9.32179 16.7758C9.83842 17.1481 10.4104 17.5146 11.0379 17.8758C11.6656 18.2365 12.3958 18.5309 13.229 18.7585C14.062 18.9864 14.8728 19.0779 15.6615 19.0337H17.5775C17.9661 19.0002 18.2605 18.878 18.4606 18.6671L18.5269 18.5836C18.5715 18.5173 18.6132 18.4143 18.6518 18.2757C18.6907 18.1369 18.7101 17.9839 18.7101 17.8175C18.6987 17.34 18.7351 16.9096 18.8182 16.5265C18.9012 16.1434 18.9959 15.8546 19.1017 15.6601C19.2075 15.4658 19.3269 15.3018 19.4598 15.1689C19.593 15.0357 19.6879 14.9549 19.7435 14.9272C19.7989 14.8992 19.843 14.8803 19.8764 14.8689C20.1429 14.7801 20.4567 14.8661 20.818 15.1273C21.179 15.3884 21.5177 15.7107 21.8344 16.0937C22.151 16.4771 22.5314 16.9072 22.9756 17.3848C23.4201 17.8625 23.8087 18.2176 24.1418 18.4512L24.4749 18.6511C24.6974 18.7845 24.9862 18.9067 25.3417 19.0178C25.6966 19.1287 26.0075 19.1565 26.2745 19.101L30.5395 19.0345C30.9614 19.0345 31.2896 18.9646 31.5225 18.8261C31.7558 18.6872 31.8944 18.5343 31.9391 18.3679C31.9837 18.2014 31.9861 18.0124 31.9475 17.8011C31.908 17.5904 31.8691 17.4431 31.8304 17.3598Z"/>
</svg>
